<mxfile host="app.diagrams.net" modified="2022-02-22T06:21:41.718Z" agent="5.0 (Macintosh; Intel Mac OS X 10_15_7) AppleWebKit/537.36 (KHTML, like Gecko) Chrome/98.0.4758.80 Safari/537.36" etag="_cbwE84jqedpY2b--4u0" version="16.6.2" type="github">
  <diagram id="tCt1h3EnR8MRbzJZUJnX" name="Page-1">
    <mxGraphModel dx="1298" dy="866" grid="1" gridSize="10" guides="1" tooltips="1" connect="1" arrows="1" fold="1" page="1" pageScale="1" pageWidth="850" pageHeight="1100" math="0" shadow="0">
      <root>
        <mxCell id="0" />
        <mxCell id="1" parent="0" />
        <mxCell id="lLUt0AjtfsTLTmbD5ptJ-1" value="Article Management&lt;br&gt;(Spring Boot)" style="whiteSpace=wrap;html=1;aspect=fixed;" vertex="1" parent="1">
          <mxGeometry x="380" y="260" width="110" height="110" as="geometry" />
        </mxCell>
        <mxCell id="lLUt0AjtfsTLTmbD5ptJ-3" value="MongoDb" style="shape=cylinder3;whiteSpace=wrap;html=1;boundedLbl=1;backgroundOutline=1;size=15;" vertex="1" parent="1">
          <mxGeometry x="388" y="440" width="75" height="80" as="geometry" />
        </mxCell>
        <mxCell id="lLUt0AjtfsTLTmbD5ptJ-5" value="API Gateway" style="rounded=0;whiteSpace=wrap;html=1;" vertex="1" parent="1">
          <mxGeometry x="240" y="140" width="510" height="60" as="geometry" />
        </mxCell>
        <mxCell id="lLUt0AjtfsTLTmbD5ptJ-6" value="" style="endArrow=classic;startArrow=classic;html=1;rounded=0;exitX=0.351;exitY=0.992;exitDx=0;exitDy=0;exitPerimeter=0;entryX=0.355;entryY=-0.027;entryDx=0;entryDy=0;entryPerimeter=0;" edge="1" parent="1" source="lLUt0AjtfsTLTmbD5ptJ-5" target="lLUt0AjtfsTLTmbD5ptJ-1">
          <mxGeometry width="50" height="50" relative="1" as="geometry">
            <mxPoint x="400" y="450" as="sourcePoint" />
            <mxPoint x="450" y="400" as="targetPoint" />
          </mxGeometry>
        </mxCell>
        <mxCell id="lLUt0AjtfsTLTmbD5ptJ-8" value="User Info Service" style="whiteSpace=wrap;html=1;aspect=fixed;" vertex="1" parent="1">
          <mxGeometry x="250" y="260" width="110" height="110" as="geometry" />
        </mxCell>
        <mxCell id="lLUt0AjtfsTLTmbD5ptJ-9" value="" style="endArrow=classic;startArrow=classic;html=1;rounded=0;exitX=0.129;exitY=1.017;exitDx=0;exitDy=0;exitPerimeter=0;entryX=0.5;entryY=0;entryDx=0;entryDy=0;" edge="1" parent="1" source="lLUt0AjtfsTLTmbD5ptJ-5" target="lLUt0AjtfsTLTmbD5ptJ-8">
          <mxGeometry width="50" height="50" relative="1" as="geometry">
            <mxPoint x="429.01" y="209.51999999999998" as="sourcePoint" />
            <mxPoint x="438.95000000000005" y="270.54999999999995" as="targetPoint" />
            <Array as="points" />
          </mxGeometry>
        </mxCell>
        <mxCell id="lLUt0AjtfsTLTmbD5ptJ-11" value="" style="endArrow=classic;startArrow=classic;html=1;rounded=0;entryX=0.355;entryY=1.018;entryDx=0;entryDy=0;entryPerimeter=0;" edge="1" parent="1" target="lLUt0AjtfsTLTmbD5ptJ-1">
          <mxGeometry width="50" height="50" relative="1" as="geometry">
            <mxPoint x="419" y="440" as="sourcePoint" />
            <mxPoint x="450" y="390" as="targetPoint" />
          </mxGeometry>
        </mxCell>
        <mxCell id="lLUt0AjtfsTLTmbD5ptJ-12" value="PostgreSQL" style="shape=cylinder3;whiteSpace=wrap;html=1;boundedLbl=1;backgroundOutline=1;size=15;" vertex="1" parent="1">
          <mxGeometry x="260" y="440" width="80" height="80" as="geometry" />
        </mxCell>
        <mxCell id="lLUt0AjtfsTLTmbD5ptJ-13" value="" style="endArrow=classic;startArrow=classic;html=1;rounded=0;entryX=0.5;entryY=1;entryDx=0;entryDy=0;" edge="1" parent="1" target="lLUt0AjtfsTLTmbD5ptJ-8">
          <mxGeometry width="50" height="50" relative="1" as="geometry">
            <mxPoint x="305" y="440" as="sourcePoint" />
            <mxPoint x="450" y="390" as="targetPoint" />
          </mxGeometry>
        </mxCell>
        <mxCell id="lLUt0AjtfsTLTmbD5ptJ-16" value="" style="endArrow=classic;startArrow=classic;html=1;rounded=0;exitX=1.017;exitY=0.459;exitDx=0;exitDy=0;exitPerimeter=0;" edge="1" parent="1" source="lLUt0AjtfsTLTmbD5ptJ-17">
          <mxGeometry width="50" height="50" relative="1" as="geometry">
            <mxPoint x="195" y="325" as="sourcePoint" />
            <mxPoint x="240" y="328" as="targetPoint" />
          </mxGeometry>
        </mxCell>
        <mxCell id="lLUt0AjtfsTLTmbD5ptJ-17" value="" style="rounded=0;whiteSpace=wrap;html=1;" vertex="1" parent="1">
          <mxGeometry x="50" y="140" width="120" height="410" as="geometry" />
        </mxCell>
        <mxCell id="lLUt0AjtfsTLTmbD5ptJ-18" value="Eureka Server" style="whiteSpace=wrap;html=1;aspect=fixed;" vertex="1" parent="1">
          <mxGeometry x="70" y="460" width="80" height="80" as="geometry" />
        </mxCell>
        <mxCell id="lLUt0AjtfsTLTmbD5ptJ-19" value="Config Server" style="whiteSpace=wrap;html=1;aspect=fixed;" vertex="1" parent="1">
          <mxGeometry x="70" y="340" width="80" height="80" as="geometry" />
        </mxCell>
        <mxCell id="lLUt0AjtfsTLTmbD5ptJ-23" value="" style="endArrow=classic;startArrow=classic;html=1;rounded=0;" edge="1" parent="1">
          <mxGeometry width="50" height="50" relative="1" as="geometry">
            <mxPoint x="170" y="230" as="sourcePoint" />
            <mxPoint x="460" y="260" as="targetPoint" />
            <Array as="points">
              <mxPoint x="170" y="230" />
              <mxPoint x="460" y="230" />
            </Array>
          </mxGeometry>
        </mxCell>
        <mxCell id="lLUt0AjtfsTLTmbD5ptJ-24" value="Eureka Server and Config Server" style="text;html=1;align=center;verticalAlign=middle;resizable=0;points=[];autosize=1;strokeColor=none;fillColor=none;" vertex="1" parent="1">
          <mxGeometry x="15" y="110" width="190" height="20" as="geometry" />
        </mxCell>
        <mxCell id="lLUt0AjtfsTLTmbD5ptJ-25" value="High Level Diagram" style="text;html=1;align=center;verticalAlign=middle;resizable=0;points=[];autosize=1;strokeColor=none;fillColor=none;" vertex="1" parent="1">
          <mxGeometry x="305" y="40" width="120" height="20" as="geometry" />
        </mxCell>
      </root>
    </mxGraphModel>
  </diagram>
</mxfile>
